<svg width="24" height="25" viewBox="0 0 24 25" fill="none" xmlns="http://www.w3.org/2000/svg">
<path d="M16.75 1.5C16.02 1.5 15.3296 1.68562 14.7246 2.01562L5.27539 6.99023C3.92539 7.70023 3 9.12 3 10.75C3 12.845 4.52062 14.5855 6.51562 14.9355L5.33594 15.4551C3.95094 16.1601 3 17.595 3 19.25C3 21.595 4.905 23.5 7.25 23.5C7.985 23.5 8.67539 23.3144 9.27539 22.9844L18.5898 18.0801C20.0148 17.3951 21 15.935 21 14.25C21 12.155 19.4794 10.4145 17.4844 10.0645L18.6641 9.54492C20.0491 8.83992 21 7.405 21 5.75C21 3.405 19.095 1.5 16.75 1.5ZM10 9.5L15 12.5L10 15.5V9.5Z" fill="black"/>
</svg>
