<svg width="18" height="19" viewBox="0 0 18 19" fill="none" xmlns="http://www.w3.org/2000/svg">
<g clip-path="url(#clip0_95_167)">
<path d="M7.56 8.645C7.5975 8.3975 7.68 8.18 7.785 7.9925C7.89 7.805 8.04 7.6475 8.2275 7.5275C8.4075 7.415 8.6325 7.3625 8.91 7.355C9.0825 7.3625 9.24 7.3925 9.3825 7.4525C9.5325 7.52 9.6675 7.61 9.7725 7.7225C9.8775 7.835 9.96 7.97 10.0275 8.12C10.095 8.27 10.125 8.435 10.1325 8.6H11.475C11.46 8.2475 11.3925 7.925 11.265 7.6325C11.1375 7.34 10.965 7.085 10.74 6.875C10.515 6.665 10.245 6.5 9.93 6.38C9.615 6.26 9.27 6.2075 8.8875 6.2075C8.4 6.2075 7.9725 6.29 7.6125 6.4625C7.2525 6.635 6.9525 6.86 6.7125 7.1525C6.4725 7.445 6.2925 7.7825 6.18 8.1725C6.0675 8.5625 6 8.9675 6 9.4025V9.605C6 10.04 6.06 10.445 6.1725 10.835C6.285 11.225 6.465 11.5625 6.705 11.8475C6.945 12.1325 7.245 12.365 7.605 12.53C7.965 12.695 8.3925 12.785 8.88 12.785C9.2325 12.785 9.5625 12.725 9.87 12.6125C10.1775 12.5 10.4475 12.3425 10.68 12.14C10.9125 11.9375 11.1 11.705 11.235 11.435C11.37 11.165 11.4525 10.88 11.46 10.5725H10.1175C10.11 10.73 10.0725 10.8725 10.005 11.0075C9.9375 11.1425 9.8475 11.255 9.735 11.3525C9.6225 11.45 9.495 11.525 9.345 11.5775C9.2025 11.63 9.0525 11.645 8.895 11.6525C8.625 11.645 8.4 11.5925 8.2275 11.48C8.04 11.36 7.89 11.2025 7.785 11.015C7.68 10.8275 7.5975 10.6025 7.56 10.355C7.5225 10.1075 7.5 9.8525 7.5 9.605V9.4025C7.5 9.14 7.5225 8.8925 7.56 8.645ZM9 2C4.86 2 1.5 5.36 1.5 9.5C1.5 13.64 4.86 17 9 17C13.14 17 16.5 13.64 16.5 9.5C16.5 5.36 13.14 2 9 2ZM9 15.5C5.6925 15.5 3 12.8075 3 9.5C3 6.1925 5.6925 3.5 9 3.5C12.3075 3.5 15 6.1925 15 9.5C15 12.8075 12.3075 15.5 9 15.5Z" fill="black"/>
</g>
<defs>
<clipPath id="clip0_95_167">
<rect width="18" height="18" fill="white" transform="translate(0 0.5)"/>
</clipPath>
</defs>
</svg>
