<svg width="25" height="24" viewBox="0 0 25 24" fill="none" xmlns="http://www.w3.org/2000/svg">
<path d="M12.5039 2C6.9929 2 2.50391 6.489 2.50391 12C2.50391 17.511 6.9929 22 12.5039 22C18.0149 22 22.5039 17.511 22.5039 12C22.5039 6.489 18.0149 2 12.5039 2ZM12.5039 4C16.934 4 20.5039 7.56988 20.5039 12C20.5039 16.0145 17.5692 19.313 13.7227 19.8984V14.3848H16.0508L16.416 12.0195H13.7227V10.7266C13.7227 9.74356 14.0429 8.87109 14.9629 8.87109H16.4395V6.80664C16.1795 6.77164 15.6307 6.69531 14.5938 6.69531C12.4277 6.69531 11.1582 7.83931 11.1582 10.4453V12.0195H8.93164V14.3848H11.1582V19.8789C7.3742 19.2408 4.50391 15.9702 4.50391 12C4.50391 7.56988 8.07378 4 12.5039 4Z" fill="#D9D9D9"/>
</svg>
