<svg width="19" height="18" viewBox="0 0 19 18" fill="none" xmlns="http://www.w3.org/2000/svg">
<path d="M5.50391 0C2.74691 0 0.503906 2.243 0.503906 5V13C0.503906 15.757 2.74691 18 5.50391 18H13.5039C16.2609 18 18.5039 15.757 18.5039 13V5C18.5039 2.243 16.2609 0 13.5039 0H5.50391ZM5.50391 2H13.5039C15.1579 2 16.5039 3.346 16.5039 5V13C16.5039 14.654 15.1579 16 13.5039 16H5.50391C3.84991 16 2.50391 14.654 2.50391 13V5C2.50391 3.346 3.84991 2 5.50391 2ZM14.5039 3C14.2387 3 13.9843 3.10536 13.7968 3.29289C13.6093 3.48043 13.5039 3.73478 13.5039 4C13.5039 4.26522 13.6093 4.51957 13.7968 4.70711C13.9843 4.89464 14.2387 5 14.5039 5C14.7691 5 15.0235 4.89464 15.211 4.70711C15.3986 4.51957 15.5039 4.26522 15.5039 4C15.5039 3.73478 15.3986 3.48043 15.211 3.29289C15.0235 3.10536 14.7691 3 14.5039 3ZM9.50391 4C6.74691 4 4.50391 6.243 4.50391 9C4.50391 11.757 6.74691 14 9.50391 14C12.2609 14 14.5039 11.757 14.5039 9C14.5039 6.243 12.2609 4 9.50391 4ZM9.50391 6C11.1579 6 12.5039 7.346 12.5039 9C12.5039 10.654 11.1579 12 9.50391 12C7.84991 12 6.50391 10.654 6.50391 9C6.50391 7.346 7.84991 6 9.50391 6Z" fill="#C7B0B0"/>
</svg>
