<svg width="162" height="159" viewBox="0 0 162 159" fill="none" xmlns="http://www.w3.org/2000/svg">
<mask id="mask0_72_104" style="mask-type:luminance" maskUnits="userSpaceOnUse" x="26" y="24" width="110" height="69">
<path d="M135.146 24H26.8535V92.9134H135.146V24Z" fill="white"/>
</mask>
<g mask="url(#mask0_72_104)">
<path d="M135.147 68.2781C135.147 72.582 133.836 76.8108 131.346 80.5434C128.855 84.2757 125.271 87.3817 120.951 89.5518C116.631 91.7222 111.726 92.8808 106.723 92.9125C101.721 92.9443 96.7959 91.8482 92.4393 89.7329C89.5103 91.5846 86.0267 92.6762 82.4 92.879C78.7732 93.0819 75.1545 92.3874 71.9717 90.878C68.0233 92.2322 63.8097 92.9232 59.5591 92.9135C41.5256 92.9135 26.855 80.6717 26.855 65.6236C26.855 50.5755 41.5256 38.3337 59.5591 38.3337H59.5667C63.1364 33.2095 68.4303 29.1384 74.7479 26.6589C81.0654 24.1795 88.1088 23.4086 94.9469 24.4482C101.785 25.4878 108.095 28.2889 113.042 32.4809C117.989 36.673 121.341 42.0585 122.653 47.9249C126.517 50.1745 129.679 53.2081 131.857 56.7577C134.036 60.3074 135.166 64.264 135.147 68.2781ZM92.1494 83.4187C92.8151 83.4183 93.4651 83.5925 94.0129 83.9179C96.4442 85.3552 99.1864 86.3584 102.076 86.8684C104.967 87.3783 107.946 87.3841 110.839 86.886C113.731 86.3874 116.479 85.3952 118.918 83.9676C121.358 82.5399 123.439 80.7059 125.04 78.5737C126.641 76.442 127.728 74.0552 128.239 71.5553C128.749 69.0554 128.671 66.4927 128.01 64.0194C127.349 61.5457 126.118 59.2114 124.39 57.1541C122.661 55.097 120.471 53.359 117.949 52.0428C117.535 51.8266 117.182 51.5345 116.915 51.1872C116.648 50.84 116.473 50.4463 116.403 50.0342C115.551 45.043 112.881 40.4128 108.777 36.8094C104.673 33.206 99.3472 30.8149 93.5646 29.9801C87.7816 29.1453 81.8402 29.9097 76.5937 32.1633C71.3477 34.417 67.0677 38.0438 64.3685 42.5224C64.0766 43.0088 63.6262 43.4115 63.0724 43.6811C62.5187 43.9507 61.8856 44.0756 61.2506 44.0404C60.601 44.0059 60.0624 43.9894 59.5563 43.9894C45.1464 43.9894 33.4228 53.6954 33.4228 65.625C33.4228 77.5546 45.148 87.2603 59.5563 87.2603C63.4592 87.271 67.3175 86.5458 70.8597 85.1361C71.3778 84.9301 71.9492 84.8435 72.5178 84.8849C73.0865 84.9267 73.6327 85.095 74.1026 85.3735C76.4782 86.779 79.3467 87.4321 82.2195 87.2216C85.092 87.0112 87.7908 85.9503 89.856 84.2194C90.47 83.7054 91.2928 83.418 92.1494 83.4187Z" fill="white"/>
<path d="M63.8246 55.6284H58.9407C58.7463 55.6284 58.56 55.6948 58.4226 55.813C58.2852 55.9313 58.208 56.0916 58.208 56.2587V66.1331H58.2204L64.5564 60.6821V56.2591C64.5565 56.092 64.4795 55.9317 64.3423 55.8134C64.205 55.6951 64.0188 55.6286 63.8246 55.6284Z" fill="white"/>
<path d="M83.8274 51.0227C83.0847 50.3837 82.077 50.0247 81.0267 50.0247C79.9761 50.0247 78.9687 50.3837 78.2261 51.0227L65.7919 61.7203L64.5571 62.7829L58.2212 68.234L43.6997 80.7273C47.5776 83.1668 52.1426 84.6711 56.9226 85.0837C61.7027 85.4967 66.5241 84.8035 70.8883 83.0758C71.4064 82.8701 71.9775 82.7839 72.5461 82.8253C73.1143 82.867 73.6605 83.0354 74.1305 83.3135C76.5057 84.719 79.3745 85.3721 82.247 85.1617C85.1194 84.9512 87.8183 83.89 89.8831 82.1591C90.4285 81.7033 91.1406 81.4239 91.8982 81.369C92.6561 81.3142 93.4124 81.4867 94.0388 81.8575C97.7778 84.0732 102.222 85.2407 106.762 85.1993C111.302 85.1579 115.716 83.9103 119.4 81.6271L83.8274 51.0227ZM80.7336 76.7487C80.7336 76.8767 80.6742 76.9995 80.5692 77.0903C80.4637 77.1806 80.3209 77.2317 80.1722 77.2317H75.6098C75.4611 77.2317 75.3183 77.1806 75.2128 77.0903C75.1074 76.9995 75.0484 76.8767 75.0484 76.7487V72.8236C75.0484 72.6956 75.1074 72.5728 75.2128 72.482C75.3183 72.3916 75.4611 72.3406 75.6098 72.3406H80.1722C80.3209 72.3406 80.4637 72.3916 80.5692 72.482C80.6742 72.5728 80.7336 72.6956 80.7336 72.8236V76.7487ZM80.7336 70.8043C80.7336 70.9323 80.6742 71.0551 80.5692 71.1458C80.4637 71.2365 80.3209 71.2873 80.1722 71.2873H75.6098C75.4611 71.2873 75.3183 71.2365 75.2128 71.1458C75.1074 71.0551 75.0484 70.9323 75.0484 70.8043V66.8791C75.0484 66.7511 75.1074 66.6283 75.2128 66.5376C75.3183 66.4472 75.4611 66.3961 75.6098 66.3961H80.1722C80.3209 66.3961 80.4637 66.4472 80.5692 66.5376C80.6742 66.6283 80.7336 66.7511 80.7336 66.8791V70.8043ZM88.0508 76.7487C88.0508 76.8767 87.9915 76.9995 87.8864 77.0903C87.781 77.1806 87.6382 77.2317 87.4894 77.2317H82.9271C82.7783 77.2317 82.6356 77.1806 82.5301 77.0903C82.4246 76.9995 82.3657 76.8767 82.3657 76.7487V72.8236C82.3657 72.6956 82.4246 72.5728 82.5301 72.482C82.6356 72.3916 82.7783 72.3406 82.9271 72.3406H87.4894C87.6382 72.3406 87.781 72.3916 87.8864 72.482C87.9915 72.5728 88.0508 72.6956 88.0508 72.8236V76.7487ZM88.0508 70.8043C88.0508 70.9323 87.9915 71.0551 87.8864 71.1458C87.781 71.2365 87.6382 71.2873 87.4894 71.2873H82.9271C82.7783 71.2873 82.6356 71.2365 82.5301 71.1458C82.4246 71.0551 82.3657 70.9323 82.3657 70.8043V66.8791C82.3657 66.7511 82.4246 66.6283 82.5301 66.5376C82.6356 66.4472 82.7783 66.3961 82.9271 66.3961H87.4894C87.6382 66.3961 87.781 66.4472 87.8864 66.5376C87.9915 66.6283 88.0508 66.7511 88.0508 66.8791V70.8043Z" fill="white"/>
</g>
<path d="M45.135 124.116C44.6759 124.116 44.2506 124.028 43.8591 123.853C43.481 123.664 43.103 123.36 42.7249 122.941C42.3604 122.509 41.9554 121.922 41.5098 121.179L39.4846 117.736H38.067V123.913H36.2443V112.977C36.2443 112.37 36.1565 111.884 35.981 111.519C35.819 111.141 35.4342 110.952 34.8266 110.952H34.4216V110.547H39.6871C40.0247 110.547 40.4162 110.574 40.8618 110.628C41.3073 110.668 41.7528 110.756 42.1984 110.891C42.6574 111.026 43.076 111.229 43.454 111.499C43.8456 111.769 44.1561 112.12 44.3856 112.552C44.6286 112.984 44.7502 113.524 44.7502 114.172C44.7502 114.942 44.5814 115.563 44.2439 116.035C43.9198 116.494 43.508 116.845 43.0085 117.088C42.5089 117.331 42.0094 117.514 41.5098 117.635L43.6363 121.179C44.1493 122.043 44.6084 122.637 45.0134 122.961C45.4185 123.272 45.8708 123.454 46.3703 123.508V123.913C46.2623 123.967 46.0936 124.015 45.864 124.055C45.648 124.096 45.405 124.116 45.135 124.116ZM38.067 117.028H39.5251C39.8221 117.028 40.1529 116.974 40.5175 116.866C40.882 116.758 41.233 116.596 41.5706 116.38C41.9081 116.15 42.1849 115.853 42.4009 115.488C42.6169 115.124 42.7249 114.678 42.7249 114.152C42.7249 113.625 42.6169 113.18 42.4009 112.815C42.1849 112.451 41.9081 112.154 41.5706 111.924C41.233 111.695 40.882 111.526 40.5175 111.418C40.1529 111.31 39.8221 111.256 39.5251 111.256C39.3091 111.256 39.0593 111.276 38.7758 111.317C38.5058 111.357 38.2695 111.404 38.067 111.458V117.028ZM51.1679 124.116C50.2228 124.116 49.4329 123.893 48.7984 123.448C48.1773 123.002 47.7048 122.401 47.3807 121.645C47.0702 120.889 46.9149 120.059 46.9149 119.154C46.9149 118.236 47.0769 117.406 47.401 116.663C47.725 115.907 48.1908 115.306 48.7984 114.861C49.4059 114.415 50.1283 114.192 50.9653 114.192C51.8834 114.192 52.6395 114.368 53.2336 114.719C53.8411 115.056 54.2867 115.556 54.5702 116.218C54.8673 116.879 55.0158 117.689 55.0158 118.648L54.9753 119.458H48.8389C48.8389 120.565 49.0751 121.483 49.5477 122.212C50.0337 122.941 50.7088 123.306 51.5729 123.306C52.2345 123.306 52.7813 123.164 53.2133 122.88C53.6589 122.597 54.0572 122.199 54.4082 121.686L54.8132 121.989C54.5162 122.502 54.1787 122.914 53.8006 123.225C53.4361 123.535 53.0311 123.765 52.5855 123.913C52.1535 124.048 51.6809 124.116 51.1679 124.116ZM48.8389 118.648H53.0918C53.0918 117.473 52.9163 116.575 52.5653 115.954C52.2142 115.32 51.6809 115.002 50.9653 115.002C50.5603 115.002 50.1958 115.164 49.8717 115.488C49.5612 115.799 49.3114 116.231 49.1224 116.785C48.9334 117.325 48.8389 117.946 48.8389 118.648ZM60.9375 124.116L57.7984 116.724C57.4743 115.968 57.1638 115.441 56.8668 115.144C56.5697 114.834 56.1782 114.665 55.6922 114.638V114.233C55.7462 114.233 55.8474 114.226 55.9959 114.213C56.158 114.199 56.2862 114.192 56.3807 114.192C56.7993 114.192 57.2111 114.26 57.6161 114.395C58.0346 114.516 58.4329 114.759 58.811 115.124C59.189 115.488 59.5266 116.022 59.8236 116.724L61.6463 121.078L64.4816 114.395H65.4942L61.3425 124.116H60.9375ZM70.8662 124.116C69.9211 124.116 69.1313 123.893 68.4967 123.448C67.8756 123.002 67.4031 122.401 67.0791 121.645C66.7685 120.889 66.6133 120.059 66.6133 119.154C66.6133 118.236 66.7753 117.406 67.0993 116.663C67.4233 115.907 67.8891 115.306 68.4967 114.861C69.1043 114.415 69.8266 114.192 70.6637 114.192C71.5818 114.192 72.3379 114.368 72.9319 114.719C73.5395 115.056 73.985 115.556 74.2686 116.218C74.5656 116.879 74.7141 117.689 74.7141 118.648L74.6736 119.458H68.5372C68.5372 120.565 68.7735 121.483 69.246 122.212C69.7321 122.941 70.4072 123.306 71.2713 123.306C71.9328 123.306 72.4796 123.164 72.9117 122.88C73.3572 122.597 73.7555 122.199 74.1065 121.686L74.5116 121.989C74.2146 122.502 73.877 122.914 73.499 123.225C73.1344 123.535 72.7294 123.765 72.2839 123.913C71.8518 124.048 71.3793 124.116 70.8662 124.116ZM68.5372 118.648H72.7902C72.7902 117.473 72.6146 116.575 72.2636 115.954C71.9126 115.32 71.3793 115.002 70.6637 115.002C70.2586 115.002 69.8941 115.164 69.5701 115.488C69.2595 115.799 69.0098 116.231 68.8207 116.785C68.6317 117.325 68.5372 117.946 68.5372 118.648ZM82.1118 123.913V112.977C82.1118 112.37 82.0241 111.884 81.8485 111.519C81.6865 111.141 81.3017 110.952 80.6942 110.952H80.2891V110.547H82.1118C82.5844 110.547 82.9489 110.608 83.2054 110.729C83.4755 110.851 83.6645 111.087 83.7725 111.438C83.8805 111.789 83.9345 112.302 83.9345 112.977V115.205C84.191 114.948 84.5421 114.719 84.9876 114.516C85.4332 114.3 85.9597 114.192 86.5673 114.192C86.9993 114.192 87.4179 114.246 87.8229 114.354C88.2415 114.462 88.6128 114.651 88.9368 114.921C89.2608 115.178 89.5173 115.549 89.7064 116.035C89.9089 116.508 90.0101 117.109 90.0101 117.838V123.913H88.1875V117.838C88.1875 117.163 88.0794 116.629 87.8634 116.238C87.6474 115.833 87.3706 115.542 87.0331 115.367C86.6956 115.191 86.3378 115.104 85.9597 115.104C85.5547 115.104 85.1766 115.212 84.8256 115.428C84.4881 115.644 84.191 115.893 83.9345 116.177V123.913H82.1118ZM96.7399 124.116C95.7948 124.116 94.9914 123.893 94.3299 123.448C93.6683 123.002 93.162 122.401 92.8109 121.645C92.4599 120.889 92.2844 120.059 92.2844 119.154C92.2844 118.236 92.4599 117.406 92.8109 116.663C93.162 115.907 93.6683 115.306 94.3299 114.861C94.9914 114.415 95.7948 114.192 96.7399 114.192C97.685 114.192 98.4883 114.415 99.1499 114.861C99.8114 115.306 100.318 115.907 100.669 116.663C101.02 117.406 101.195 118.236 101.195 119.154C101.195 120.059 101.02 120.889 100.669 121.645C100.318 122.401 99.8114 123.002 99.1499 123.448C98.4883 123.893 97.685 124.116 96.7399 124.116ZM96.7399 123.306C97.2529 123.306 97.6985 123.123 98.0765 122.759C98.4545 122.381 98.7448 121.881 98.9473 121.26C99.1634 120.626 99.2714 119.924 99.2714 119.154C99.2714 118.371 99.1634 117.669 98.9473 117.048C98.7448 116.427 98.4545 115.934 98.0765 115.569C97.6985 115.191 97.2529 115.002 96.7399 115.002C96.2403 115.002 95.7948 115.191 95.4032 115.569C95.0252 115.934 94.7281 116.427 94.5121 117.048C94.3096 117.669 94.2083 118.371 94.2083 119.154C94.2083 119.924 94.3096 120.626 94.5121 121.26C94.7281 121.881 95.0252 122.381 95.4032 122.759C95.7948 123.123 96.2403 123.306 96.7399 123.306ZM103.874 123.913V116.825C103.874 116.218 103.786 115.731 103.611 115.367C103.449 114.989 103.064 114.8 102.456 114.8H102.051V114.395H103.874C104.387 114.395 104.772 114.469 105.029 114.618C105.299 114.753 105.488 114.948 105.596 115.205H105.697C105.953 114.948 106.304 114.719 106.75 114.516C107.195 114.3 107.722 114.192 108.33 114.192C108.681 114.192 109.005 114.233 109.302 114.314C109.612 114.395 109.889 114.537 110.132 114.739C110.389 114.942 110.598 115.232 110.76 115.61C111.111 115.151 111.563 114.8 112.117 114.557C112.67 114.314 113.231 114.192 113.798 114.192C114.311 114.192 114.777 114.294 115.195 114.496C115.627 114.699 115.971 115.063 116.228 115.59C116.498 116.103 116.633 116.852 116.633 117.838V123.913H114.81V117.838C114.81 116.825 114.669 116.116 114.385 115.711C114.101 115.306 113.703 115.104 113.19 115.104C112.799 115.104 112.394 115.245 111.975 115.529C111.556 115.812 111.253 116.11 111.064 116.42C111.118 116.569 111.145 116.791 111.145 117.088C111.158 117.385 111.165 117.635 111.165 117.838V123.913H109.342V117.838C109.342 116.825 109.2 116.116 108.917 115.711C108.633 115.306 108.235 115.104 107.722 115.104C107.317 115.104 106.939 115.212 106.588 115.428C106.25 115.644 105.953 115.893 105.697 116.177V123.913H103.874ZM123.178 124.116C122.232 124.116 121.443 123.893 120.808 123.448C120.187 123.002 119.714 122.401 119.39 121.645C119.08 120.889 118.925 120.059 118.925 119.154C118.925 118.236 119.087 117.406 119.411 116.663C119.735 115.907 120.201 115.306 120.808 114.861C121.416 114.415 122.138 114.192 122.975 114.192C123.893 114.192 124.649 114.368 125.243 114.719C125.851 115.056 126.296 115.556 126.58 116.218C126.877 116.879 127.025 117.689 127.025 118.648L126.985 119.458H120.849C120.849 120.565 121.085 121.483 121.557 122.212C122.043 122.941 122.719 123.306 123.583 123.306C124.244 123.306 124.791 123.164 125.223 122.88C125.669 122.597 126.067 122.199 126.418 121.686L126.823 121.989C126.526 122.502 126.188 122.914 125.81 123.225C125.446 123.535 125.041 123.765 124.595 123.913C124.163 124.048 123.691 124.116 123.178 124.116ZM120.849 118.648H125.102C125.102 117.473 124.926 116.575 124.575 115.954C124.224 115.32 123.691 115.002 122.975 115.002C122.57 115.002 122.205 115.164 121.881 115.488C121.571 115.799 121.321 116.231 121.132 116.785C120.943 117.325 120.849 117.946 120.849 118.648Z" fill="white"/>
</svg>
