<svg width="160" height="150" viewBox="0 0 160 150" fill="none" xmlns="http://www.w3.org/2000/svg">
<rect width="160" height="150" fill="white"/>
<mask id="mask0_129_597" style="mask-type:luminance" maskUnits="userSpaceOnUse" x="25" y="24" width="110" height="69">
<path d="M134.146 24H25.8535V92.9134H134.146V24Z" fill="white"/>
</mask>
<g mask="url(#mask0_129_597)">
<path d="M134.147 68.278C134.147 72.5819 132.836 76.8106 130.346 80.5433C127.855 84.2755 124.271 87.3816 119.951 89.5517C115.631 91.7221 110.726 92.8806 105.723 92.9124C100.721 92.9441 95.7959 91.848 91.4393 89.7328C88.5103 91.5845 85.0267 92.6761 81.4 92.8789C77.7732 93.0818 74.1545 92.3873 70.9717 90.8779C67.0233 92.232 62.8097 92.9231 58.5591 92.9134C40.5256 92.9134 25.855 80.6716 25.855 65.6235C25.855 50.5754 40.5256 38.3336 58.5591 38.3336H58.5667C62.1364 33.2094 67.4303 29.1383 73.7479 26.6588C80.0654 24.1794 87.1088 23.4085 93.9469 24.4481C100.785 25.4877 107.095 28.2888 112.042 32.4808C116.989 36.6729 120.341 42.0583 121.653 47.9247C125.517 50.1744 128.679 53.2079 130.857 56.7576C133.036 60.3073 134.166 64.2638 134.147 68.278ZM91.1494 83.4185C91.8151 83.4182 92.4651 83.5924 93.0129 83.9178C95.4442 85.355 98.1864 86.3583 101.076 86.8682C103.967 87.3782 106.946 87.384 109.839 86.8858C112.731 86.3873 115.479 85.3951 117.918 83.9674C120.358 82.5398 122.439 80.7058 124.04 78.5736C125.641 76.4418 126.728 74.0551 127.239 71.5552C127.749 69.0553 127.671 66.4926 127.01 64.0192C126.349 61.5455 125.118 59.2112 123.39 57.154C121.661 55.0969 119.471 53.3589 116.949 52.0427C116.535 51.8265 116.182 51.5344 115.915 51.1871C115.648 50.8399 115.473 50.4462 115.403 50.0341C114.551 45.0429 111.881 40.4127 107.777 36.8093C103.673 33.2058 98.3472 30.8148 92.5646 29.98C86.7816 29.1452 80.8402 29.9096 75.5937 32.1632C70.3477 34.4169 66.0677 38.0437 63.3685 42.5223C63.0766 43.0087 62.6262 43.4114 62.0724 43.681C61.5187 43.9506 60.8856 44.0755 60.2506 44.0403C59.601 44.0058 59.0624 43.9893 58.5563 43.9893C44.1464 43.9893 32.4228 53.6953 32.4228 65.6249C32.4228 77.5545 44.148 87.2602 58.5563 87.2602C62.4592 87.2709 66.3175 86.5457 69.8597 85.136C70.3778 84.93 70.9492 84.8434 71.5178 84.8848C72.0865 84.9266 72.6327 85.0949 73.1026 85.3733C75.4782 86.7789 78.3467 87.432 81.2195 87.2215C84.092 87.0111 86.7908 85.9502 88.856 84.2193C89.47 83.7052 90.2928 83.4178 91.1494 83.4185Z" fill="#003CB4"/>
<path d="M62.8246 55.6284H57.9407C57.7463 55.6284 57.56 55.6948 57.4226 55.813C57.2852 55.9313 57.208 56.0916 57.208 56.2587V66.1331H57.2204L63.5564 60.6821V56.2591C63.5565 56.092 63.4795 55.9317 63.3423 55.8134C63.205 55.6951 63.0188 55.6286 62.8246 55.6284Z" fill="black"/>
<path d="M82.8274 51.0226C82.0847 50.3835 81.077 50.0245 80.0267 50.0245C78.9761 50.0245 77.9687 50.3835 77.2261 51.0226L64.7919 61.7201L63.5571 62.7828L57.2212 68.2338L42.6997 80.7272C46.5776 83.1667 51.1426 84.6709 55.9226 85.0836C60.7027 85.4965 65.5241 84.8034 69.8883 83.0756C70.4064 82.87 70.9775 82.7838 71.5461 82.8252C72.1143 82.8669 72.6605 83.0353 73.1305 83.3133C75.5057 84.7189 78.3745 85.372 81.247 85.1615C84.1194 84.9511 86.8183 83.8898 88.8831 82.159C89.4284 81.7032 90.1406 81.4237 90.8982 81.3689C91.6561 81.314 92.4124 81.4865 93.0388 81.8574C96.7778 84.073 101.222 85.2405 105.762 85.1991C110.302 85.1577 114.716 83.9102 118.4 81.627L82.8274 51.0226ZM79.7336 76.7486C79.7336 76.8766 79.6742 76.9994 79.5692 77.0901C79.4637 77.1805 79.3209 77.2316 79.1722 77.2316H74.6098C74.4611 77.2316 74.3183 77.1805 74.2128 77.0901C74.1074 76.9994 74.0484 76.8766 74.0484 76.7486V72.8235C74.0484 72.6955 74.1074 72.5726 74.2128 72.4819C74.3183 72.3915 74.4611 72.3404 74.6098 72.3404H79.1722C79.3209 72.3404 79.4637 72.3915 79.5692 72.4819C79.6742 72.5726 79.7336 72.6955 79.7336 72.8235V76.7486ZM79.7336 70.8041C79.7336 70.9321 79.6742 71.055 79.5692 71.1457C79.4637 71.2364 79.3209 71.2871 79.1722 71.2871H74.6098C74.4611 71.2871 74.3183 71.2364 74.2128 71.1457C74.1074 71.055 74.0484 70.9321 74.0484 70.8041V66.879C74.0484 66.751 74.1074 66.6282 74.2128 66.5375C74.3183 66.4471 74.4611 66.396 74.6098 66.396H79.1722C79.3209 66.396 79.4637 66.4471 79.5692 66.5375C79.6742 66.6282 79.7336 66.751 79.7336 66.879V70.8041ZM87.0508 76.7486C87.0508 76.8766 86.9915 76.9994 86.8864 77.0901C86.781 77.1805 86.6382 77.2316 86.4894 77.2316H81.9271C81.7783 77.2316 81.6356 77.1805 81.5301 77.0901C81.4246 76.9994 81.3657 76.8766 81.3657 76.7486V72.8235C81.3657 72.6955 81.4246 72.5726 81.5301 72.4819C81.6356 72.3915 81.7783 72.3404 81.9271 72.3404H86.4894C86.6382 72.3404 86.781 72.3915 86.8864 72.4819C86.9915 72.5726 87.0508 72.6955 87.0508 72.8235V76.7486ZM87.0508 70.8041C87.0508 70.9321 86.9915 71.055 86.8864 71.1457C86.781 71.2364 86.6382 71.2871 86.4894 71.2871H81.9271C81.7783 71.2871 81.6356 71.2364 81.5301 71.1457C81.4246 71.055 81.3657 70.9321 81.3657 70.8041V66.879C81.3657 66.751 81.4246 66.6282 81.5301 66.5375C81.6356 66.4471 81.7783 66.396 81.9271 66.396H86.4894C86.6382 66.396 86.781 66.4471 86.8864 66.5375C86.9915 66.6282 87.0508 66.751 87.0508 66.879V70.8041Z" fill="black"/>
</g>
<path d="M44.9285 120.286C44.9285 120.596 44.861 120.886 44.726 121.156C43.5919 121.062 42.586 121.015 41.7084 121.015C40.9928 119.125 40.1287 117.16 39.1161 115.121C38.7651 115.189 38.3331 115.223 37.82 115.223H37.0302L36.7669 119.881L38.4276 120.184C38.4276 120.495 38.3601 120.785 38.225 121.055C36.8344 120.961 35.8893 120.913 35.3897 120.913L33.4658 121.055C33.4658 120.745 33.5333 120.454 33.6683 120.184C34.2084 120.022 34.6674 119.779 35.0455 119.455C35.3965 116.485 35.7003 112.745 35.9568 108.236L34.4582 107.871C34.4582 107.561 34.5257 107.27 34.6607 107C35.7408 107.095 36.5306 107.142 37.0302 107.142L39.7845 106.939C40.9591 106.939 41.8974 107.21 42.5995 107.75C43.3151 108.276 43.6729 109.1 43.6729 110.22C43.6729 111.327 43.4096 112.252 42.883 112.995C42.3565 113.724 41.6409 114.284 40.7363 114.676C41.6004 116.688 42.4712 118.47 43.3488 120.022L44.9285 120.286ZM42.0932 110.828C42.0932 110.247 41.9379 109.707 41.6274 109.208C41.3304 108.695 40.9051 108.377 40.3515 108.256H37.6782C37.4082 110.578 37.2124 112.556 37.0909 114.19H39.1566C40.0747 114.014 40.7903 113.623 41.3034 113.015C41.8299 112.394 42.0932 111.665 42.0932 110.828ZM52.4045 119.698C52.4045 120.009 52.337 120.299 52.202 120.569C50.7709 120.934 49.7448 121.116 49.1237 121.116C46.8014 121.116 45.6403 119.854 45.6403 117.329C45.6403 116.397 45.8428 115.472 46.2479 114.554C46.6529 113.623 47.2672 112.833 48.0908 112.185C48.9279 111.523 49.873 111.192 50.9261 111.192C51.5877 111.192 52.0737 111.361 52.3843 111.699C52.6948 112.036 52.8501 112.448 52.8501 112.934C52.8501 115.364 50.9464 116.62 47.139 116.701C47.139 118.551 47.6925 119.55 48.7997 119.698H52.4045ZM51.4324 113.44C51.4324 112.995 51.2434 112.718 50.8654 112.61H49.0022C48.5566 112.786 48.1718 113.177 47.8478 113.785C47.5238 114.379 47.3077 115.054 47.1997 115.81C48.7524 115.756 49.846 115.533 50.4806 115.142C51.1151 114.737 51.4324 114.169 51.4324 113.44ZM57.1696 119.698H59.0936C60.1872 119.32 60.9905 118.294 61.5036 116.62C61.7331 115.864 61.8479 115.054 61.8479 114.19C61.8479 113.312 61.6859 112.529 61.3618 111.841C61.9019 111.341 62.6309 111.091 63.549 111.091C63.549 114.413 62.9752 116.917 61.8276 118.605C60.68 120.279 59.3434 121.116 57.8177 121.116C57.2776 121.116 56.8186 121.048 56.4406 120.913C56.0625 120.778 55.8195 120.643 55.7115 120.508L55.5495 120.306C55.8195 116.877 55.968 114.311 55.995 112.61H54.5571C54.5571 112.3 54.6246 112.009 54.7596 111.739C55.5292 111.631 56.2785 111.415 57.0076 111.091C57.1966 111.091 57.3654 111.172 57.5139 111.334C57.6624 111.496 57.7367 111.719 57.7367 112.003C57.3586 114.797 57.1696 117.363 57.1696 119.698ZM72.0435 119.698C72.0435 120.009 71.976 120.299 71.841 120.569C70.4099 120.934 69.3838 121.116 68.7627 121.116C66.4405 121.116 65.2793 119.854 65.2793 117.329C65.2793 116.397 65.4819 115.472 65.8869 114.554C66.2919 113.623 66.9063 112.833 67.7298 112.185C68.5669 111.523 69.512 111.192 70.5651 111.192C71.2267 111.192 71.7128 111.361 72.0233 111.699C72.3338 112.036 72.4891 112.448 72.4891 112.934C72.4891 115.364 70.5854 116.62 66.778 116.701C66.778 118.551 67.3315 119.55 68.4387 119.698H72.0435ZM71.0714 113.44C71.0714 112.995 70.8824 112.718 70.5044 112.61H68.6412C68.1956 112.786 67.8108 113.177 67.4868 113.785C67.1628 114.379 66.9468 115.054 66.8387 115.81C68.3914 115.756 69.485 115.533 70.1196 115.142C70.7542 114.737 71.0714 114.169 71.0714 113.44ZM78.5745 106.433C78.5745 106.123 78.642 105.832 78.777 105.562C79.5466 105.454 80.296 105.238 81.025 104.914C81.2141 104.914 81.3828 105.002 81.5313 105.178C81.6799 105.34 81.7541 105.556 81.7541 105.826L80.8428 114.899L81.0453 115.02C81.4638 114.061 82.0849 113.184 82.9085 112.387C83.7321 111.591 84.6637 111.192 85.7033 111.192C86.2028 111.192 86.6011 111.26 86.8981 111.395C87.1952 111.53 87.3707 111.665 87.4247 111.8L87.4855 112.003C87.1344 114.986 86.9251 117.552 86.8576 119.698H88.4778C88.4778 120.009 88.4103 120.299 88.2753 120.569C87.3707 120.677 86.5539 120.893 85.8248 121.217C85.6223 121.217 85.4467 121.143 85.2982 120.994C85.1632 120.846 85.0957 120.616 85.0957 120.306C85.3927 118.416 85.6493 115.85 85.8653 112.61H84.6299C84.0899 112.61 83.4485 113.035 82.706 113.886C81.9634 114.723 81.3626 115.648 80.9035 116.661C80.7685 118.335 80.6132 119.752 80.4377 120.913C79.7762 121.116 79.1416 121.217 78.534 121.217C78.75 120.313 78.8851 119.651 78.9391 119.233C79.1956 117.369 79.5669 113.103 80.0529 106.433H78.5745ZM93.1091 119.658L93.2711 119.698H95.2153C95.7823 119.482 96.2819 118.962 96.7139 118.139C97.146 117.315 97.362 116.471 97.362 115.607C97.362 114.541 97.173 113.785 96.7949 113.339C96.4574 112.948 96.1604 112.718 95.9038 112.651L95.7418 112.61H93.7976C93.2306 112.826 92.731 113.346 92.299 114.169C91.8669 114.993 91.6509 115.891 91.6509 116.863C91.6509 117.822 91.8264 118.51 92.1775 118.929C92.542 119.347 92.8525 119.59 93.1091 119.658ZM98.2936 117.754C97.9156 118.672 97.3147 119.462 96.4912 120.124C95.6811 120.785 94.7157 121.116 93.5951 121.116C91.2864 121.116 90.132 119.86 90.132 117.349C90.132 116.404 90.321 115.472 90.6991 114.554C91.0906 113.636 91.6914 112.846 92.5015 112.185C93.3251 111.523 94.2972 111.192 95.4178 111.192C97.7265 111.192 98.8809 112.448 98.8809 114.959C98.8809 115.904 98.6851 116.836 98.2936 117.754ZM113.771 111.192C114.271 111.192 114.669 111.26 114.966 111.395C115.263 111.53 115.432 111.665 115.472 111.8L115.553 112.003C115.243 114.608 115.033 117.174 114.925 119.698H116.545C116.545 120.009 116.478 120.299 116.343 120.569C115.438 120.677 114.622 120.893 113.892 121.217C113.69 121.217 113.514 121.143 113.366 120.994C113.231 120.846 113.163 120.616 113.163 120.306C113.46 118.416 113.717 115.85 113.933 112.61H112.698C112.225 112.61 111.638 113.083 110.936 114.028C110.234 114.973 109.626 115.992 109.113 117.086C108.964 119.071 108.85 120.346 108.769 120.913C108.107 121.116 107.473 121.217 106.865 121.217C107.081 120.313 107.216 119.651 107.27 119.233C107.513 118.058 107.743 115.85 107.959 112.61H106.723C106.197 112.61 105.623 113.022 105.002 113.845C104.394 114.656 103.861 115.594 103.402 116.661C103.267 118.335 103.112 119.752 102.936 120.913C102.275 121.116 101.64 121.217 101.032 121.217C101.248 120.313 101.437 119.253 101.599 118.038C101.761 116.823 101.903 115.013 102.025 112.61H100.546C100.546 112.3 100.614 112.009 100.749 111.739C101.518 111.631 102.268 111.415 102.997 111.091C103.186 111.091 103.355 111.179 103.503 111.354C103.652 111.516 103.726 111.732 103.726 112.003L103.341 114.899L103.544 115.02C104.664 112.468 106.082 111.192 107.797 111.192C108.296 111.192 108.694 111.26 108.991 111.395C109.288 111.53 109.464 111.665 109.518 111.8L109.579 112.003C109.565 112.367 109.478 113.332 109.315 114.899L109.518 115.02C110.639 112.468 112.056 111.192 113.771 111.192ZM125.403 119.698C125.403 120.009 125.336 120.299 125.201 120.569C123.769 120.934 122.743 121.116 122.122 121.116C119.8 121.116 118.639 119.854 118.639 117.329C118.639 116.397 118.841 115.472 119.246 114.554C119.652 113.623 120.266 112.833 121.089 112.185C121.926 111.523 122.872 111.192 123.925 111.192C124.586 111.192 125.072 111.361 125.383 111.699C125.693 112.036 125.849 112.448 125.849 112.934C125.849 115.364 123.945 116.62 120.138 116.701C120.138 118.551 120.691 119.55 121.798 119.698H125.403ZM124.431 113.44C124.431 112.995 124.242 112.718 123.864 112.61H122.001C121.555 112.786 121.17 113.177 120.846 113.785C120.522 114.379 120.306 115.054 120.198 115.81C121.751 115.756 122.845 115.533 123.479 115.142C124.114 114.737 124.431 114.169 124.431 113.44Z" fill="black"/>
</svg>
