<svg width="19" height="20" viewBox="0 0 19 20" fill="none" xmlns="http://www.w3.org/2000/svg">
<path d="M3.18359 0L4.66211 5.34375V7.90625H5.94336V5.34375L7.44141 0H6.15039L5.61328 2.43164C5.46228 3.14164 5.36627 3.64627 5.32227 3.94727H5.2832C5.2202 3.52627 5.12419 3.01787 4.99219 2.42188L4.47461 0H3.18359ZM8.93555 2.01758C8.50155 2.01758 8.15177 2.10239 7.88477 2.27539C7.61777 2.44739 7.42092 2.72261 7.29492 3.09961C7.16992 3.47661 7.10742 3.97566 7.10742 4.59766V5.4375C7.10742 6.0525 7.16148 6.54502 7.27148 6.91602C7.38148 7.28702 7.56712 7.56033 7.82812 7.73633C8.08913 7.91233 8.44825 8 8.90625 8C9.35225 8 9.7068 7.91323 9.9668 7.74023C10.2268 7.56723 10.4152 7.29588 10.5312 6.92188C10.6473 6.54787 10.7051 6.0535 10.7051 5.4375V4.59766C10.7051 3.97666 10.6463 3.47947 10.5273 3.10547C10.4083 2.73247 10.2189 2.45725 9.96094 2.28125C9.70294 2.10525 9.36255 2.01758 8.93555 2.01758ZM11.3828 2.13086V6.44531C11.3828 6.97931 11.4723 7.37205 11.6543 7.62305C11.8363 7.87405 12.119 8 12.502 8C13.054 8 13.4701 7.73322 13.7461 7.19922H13.7734L13.8867 7.90625H14.9043V2.13086H13.6055V6.71875C13.5555 6.82575 13.479 6.91342 13.375 6.98242C13.271 7.05242 13.1638 7.08594 13.0508 7.08594C12.9188 7.08594 12.8246 7.03188 12.7676 6.92188C12.7106 6.81187 12.6816 6.62714 12.6816 6.36914V2.13086H11.3828ZM8.90625 2.91211C9.08825 2.91211 9.21706 3.00722 9.28906 3.19922C9.36106 3.39022 9.39648 3.69438 9.39648 4.10938V5.9082C9.39648 6.3352 9.36106 6.64403 9.28906 6.83203C9.21706 7.02003 9.0892 7.11423 8.9082 7.11523C8.7262 7.11523 8.60025 7.02003 8.53125 6.83203C8.46125 6.64403 8.42773 6.3352 8.42773 5.9082V4.10938C8.42773 3.69537 8.46316 3.39122 8.53516 3.19922C8.60716 3.00822 8.73025 2.91211 8.90625 2.91211ZM2.50391 9C1.40391 9 0.503906 9.9 0.503906 11V18C0.503906 19.1 1.40391 20 2.50391 20H16.5039C17.6039 20 18.5039 19.1 18.5039 18V11C18.5039 9.9 17.6039 9 16.5039 9H2.50391ZM9.55273 11H10.6094V13.5684H10.6172C10.7122 13.3824 10.8484 13.2331 11.0234 13.1191C11.1984 13.0051 11.3878 12.9492 11.5898 12.9492C11.8498 12.9492 12.0532 13.0183 12.2012 13.1562C12.3492 13.2942 12.4574 13.5172 12.5234 13.8242C12.5894 14.1322 12.6211 14.5595 12.6211 15.1055V15.877H12.623C12.623 16.604 12.5344 17.1365 12.3594 17.4785C12.1844 17.8205 11.912 17.9922 11.541 17.9922C11.334 17.9922 11.1466 17.9446 10.9766 17.8496C10.8066 17.7546 10.6788 17.624 10.5938 17.459H10.5703L10.459 17.9199H9.55273V11ZM2.99023 11.2461H6.24219V12.1309H5.15234V17.9199H4.08008V12.1309H2.99023V11.2461ZM14.6016 12.9512C14.9776 12.9512 15.2668 13.0202 15.4688 13.1582C15.6698 13.2962 15.8115 13.5117 15.8945 13.8027C15.9765 14.0947 16.0176 14.4977 16.0176 15.0117V15.8477H14.1816V16.0957C14.1816 16.4087 14.19 16.6428 14.209 16.7988C14.228 16.9548 14.2662 17.0696 14.3242 17.1406C14.3822 17.2126 14.4718 17.248 14.5938 17.248C14.7577 17.248 14.8706 17.1836 14.9316 17.0566C14.9926 16.9296 15.0262 16.7189 15.0312 16.4219L15.9785 16.4766C15.9835 16.5186 15.9863 16.5783 15.9863 16.6523C15.9863 17.1033 15.8622 17.4401 15.6152 17.6621C15.3682 17.8851 15.0213 17.9961 14.5703 17.9961C14.0293 17.9961 13.6496 17.8253 13.4316 17.4863C13.2136 17.1473 13.1055 16.6231 13.1055 15.9121V15.0605C13.1055 14.3285 13.2184 13.794 13.4434 13.457C13.6684 13.12 14.0556 12.9512 14.6016 12.9512ZM5.91406 13.0449H7.01367V16.625C7.01367 16.842 7.03794 16.9978 7.08594 17.0898C7.13394 17.1828 7.21222 17.2285 7.32422 17.2285C7.41922 17.2285 7.51261 17.1996 7.59961 17.1406C7.68761 17.0826 7.74997 17.008 7.79297 16.918V13.0449H8.89258V17.9199H8.89062H8.03125L7.9375 17.3223H7.91211C7.67811 17.7743 7.32833 18 6.86133 18C6.53733 18 6.30048 17.8936 6.14648 17.6816C5.99248 17.4696 5.91406 17.1375 5.91406 16.6875V13.0449ZM14.5781 13.6934C14.4611 13.6934 14.3744 13.7289 14.3184 13.7969C14.2624 13.8659 14.225 13.9788 14.207 14.1348C14.188 14.2908 14.1797 14.5277 14.1797 14.8457V15.1953H14.9824V14.8457C14.9824 14.5327 14.9722 14.2968 14.9512 14.1348C14.9312 13.9728 14.8919 13.859 14.8359 13.793C14.7799 13.727 14.6951 13.6934 14.5781 13.6934ZM11.0957 13.7285C10.9897 13.7285 10.8927 13.7705 10.8027 13.8555C10.7127 13.9405 10.6483 14.0496 10.6113 14.1816V16.9492C10.6593 17.0342 10.7218 17.0976 10.7988 17.1406C10.8758 17.1826 10.9578 17.2051 11.0488 17.2051C11.1658 17.2051 11.2572 17.1631 11.3262 17.0781C11.3952 16.9931 11.4456 16.8504 11.4746 16.6484C11.5036 16.4474 11.5176 16.1675 11.5176 15.8125V15.1855C11.5176 14.8035 11.5064 14.5097 11.4824 14.3027C11.4584 14.0957 11.4155 13.9464 11.3555 13.8594C11.2945 13.7724 11.2077 13.7285 11.0957 13.7285Z" fill="white"/>
</svg>
